# xmcd
#
# Track frame offsets:
#	150
#	4898
#	18846
#	31254
#	42696
#	55690
#	66560
#	81668
#	95489
#	106874
#	122205
#	134038
#	147078
#	158746
#	171798
#	188541
#	201635
#	216446
#	229880
#	238927
#	250710
#	260515
#	280694
#
# Disc length: 3879 seconds
#
# Revision: 1
# Processed by: cddbd v1.5.1PL2 Copyright (c) Steve Scherf et al.
# Submitted via: audiograbber 1.83.01
#
DISCID=590f2517
DTITLE=diverse - Verdammt in alle Ewigkeit CD 2 - Berühmte Trompetenkonzerte)
DYEAR=2005
DGENRE=Trompete
TTITLE0=From Here To Eternigy (Heinz Schachtner)
TTITLE1=Il Siliezio (Milo Pavlovic)
TTITLE2=Dolannes Melodie (Louis Lasarte)
TTITLE3=Mitternachtsblues (Milo Pavlovic)
TTITLE4=Spanish Eyes (Werner Gutterer)
TTITLE5=Lara's Lied (Milo Pavlovic)
TTITLE6=Sehnsucht Werner Gutterer)
TTITLE7=Liebesmelodie (Charly Tabor)
TTITLE8=Rote Rosen gür Dich (Louis Lasarte)
TTITLE9=Ave Maria no Morro (Werner Gutterer)
TTITLE10=Bianca (Pierre Dolannes)
TTITLE11=La Montanara (Louis Lasarte)
TTITLE12=Sunset Melodie (Werner Gutterer)
TTITLE13=The House Of The Rising Sun (King Farmer)
TTITLE14=Überall auf der Welt scheint die Sonne (Werner Listmann)
TTITLE15=Wunderland bei Nacht (Louis Lasarte)
TTITLE16=Freude schöner Götterfunken)
TTITLE17=Cherry Pink (Louis Lasarte)
TTITLE18=Träumerei (Pierre Lolannes
TTITLE19=Intermezzo (Werner Listmann)
TTITLE20=Mexican Hot Dance (Louis Lasarte)
TTITLE21=Stand Up (Louis Lasarte)
TTITLE22=Russian Lullaby
EXTD=
EXTT0=
EXTT1=
EXTT2=
EXTT3=
EXTT4=
EXTT5=
EXTT6=
EXTT7=
EXTT8=
EXTT9=
EXTT10=
EXTT11=
EXTT12=
EXTT13=
EXTT14=
EXTT15=
EXTT16=
EXTT17=
EXTT18=
EXTT19=
EXTT20=
EXTT21=
EXTT22=
PLAYORDER=
